# xmcd CD database file
#
# Track frame offsets:
#	150
#	25711
#	50181
#	68581
#	90149
#	118851
#	136080
#	155272
#	171592
#	194054
#	214094
#	237382
#	258887
#	278445
#	295999
#	315583
#
# Disc length: 4613 seconds
#
# Revision: 1
# Processed by: cddbd v1.5.2PL0 Copyright (c) Steve Scherf et al.
# Submitted via: CDex 1.51
#
DISCID=e3120310
DTITLE=Lo que mas suena En Cuba - Explosion Cubana
DYEAR=2005
DGENRE=Salsa
TTITLE0=Ay Amor - Charanga Habanera
TTITLE1=Ese soy yo - El Clan
TTITLE2=La Lucecita - Arnaldo Y Su Talisman
TTITLE3=La mujer piropo - Cubanito and Klimax
TTITLE4=Si no fuera por ti - Gardi
TTITLE5=El Despechao - David Blanco
TTITLE6=Coge la Botella - Yumuri Y Sus Hermanos
TTITLE7=Callejero - Moneda Dura
TTITLE8=Estoy como nunca - Eliades Ochoa
TTITLE9=El Bony - Charanga Habanera
TTITLE10=Acelerao - Arnaldo y su Talisman
TTITLE11=Me gusta tanto - Paulo F.G
TTITLE12=Para bailar casino - Adalberto Alvares
TTITLE13=El poder de las mujeres - Sur Caribe
TTITLE14=Soy Cubano, soy popular - Charanga Habanera
TTITLE15=Locos por mi habana - Manolito Simonet
EXTD=YEAR: 2005
EXTT0=
EXTT1=
EXTT2=
EXTT3=
EXTT4=
EXTT5=
EXTT6=
EXTT7=
EXTT8=
EXTT9=
EXTT10=
EXTT11=
EXTT12=
EXTT13=
EXTT14=
EXTT15=
PLAYORDER=
